<?xml version="1.0" encoding="UTF-8"?>
<svg width="32px" height="32px" viewBox="0 0 32 32" version="1.1" xmlns="http://www.w3.org/2000/svg" xmlns:xlink="http://www.w3.org/1999/xlink">
    <g stroke="#ffffff" stroke-width="1" fill="#ffffff" fill-rule="evenodd">
        <path d="M27.3639372,1.8350419 C27.6609817,2.1306159 27.8076923,2.4854256 27.8076923,2.89870939 C27.8076923,3.31305699 27.6605363,3.66770953 27.3675487,3.96192958 C27.0738025,4.25523088 26.7209364,4.40362232 26.3090828,4.40362232 C25.8936055,4.40362232 25.5374169,4.25886964 25.2451996,3.96571341 C24.948143,3.67013941 24.8015769,3.31517255 24.8015769,2.89870939 C24.8015769,2.4854256 24.9486004,2.13287653 25.2451996,1.83730253 C25.5374169,1.54308248 25.8936055,1.39696375 26.3090828,1.39696375 C26.7179268,1.39696375 27.0694447,1.54308248 27.3639372,1.8350419 Z M27.186216,3.78891301 C27.431496,3.54183974 27.5567061,3.2471724 27.5588128,2.89886654 C27.5588128,2.55372798 27.4355529,2.25815398 27.1901405,2.01426009 C26.9436447,1.77036619 26.6478039,1.64553604 26.3029071,1.64553604 C25.9578659,1.64553604 25.6608093,1.76823855 25.4185389,2.01214452 C25.1735719,2.25815398 25.0521297,2.55372798 25.0503239,2.89886654 C25.0503239,3.24491177 25.1735719,3.54183974 25.4164442,3.78664029 C25.6612667,4.03250468 25.9557472,4.15641607 26.3029071,4.15641607 C26.6476594,4.15641607 26.9410925,4.03552691 27.186216,3.78891301 Z M27.0068456,3.73238524 L26.6867838,3.73238524 C26.4866474,3.3671549 26.3531669,3.16224777 26.2940349,3.11419432 C26.2317247,3.06825644 26.1561966,3.04589194 26.0627434,3.04589194 L25.907907,3.04589194 L25.907907,3.73238524 L25.6463633,3.73238524 L25.6463633,2.11641143 L26.2069018,2.11641143 C26.3737765,2.11641143 26.4998895,2.12850034 26.5915249,2.15449152 C26.6815111,2.17548996 26.7549446,2.22596119 26.8110671,2.3039347 C26.8675025,2.37904314 26.8967073,2.46517667 26.8967073,2.55357082 C26.8967073,2.66403934 26.8566681,2.7630113 26.7752652,2.85383533 C26.6962579,2.94464727 26.5830981,2.9951185 26.433679,3.00690519 L26.433679,3.01143853 C26.5286249,3.03531414 26.6559297,3.17055285 26.8083704,3.41807341 L27.0068456,3.73238524 Z M25.907594,2.82224699 L26.2257176,2.82224699 C26.3712244,2.82224699 26.4722014,2.79837138 26.5307316,2.757124 C26.586854,2.71495786 26.6156015,2.65497265 26.6156015,2.57623754 C26.6156015,2.50189071 26.586854,2.4419055 26.5338976,2.39929207 C26.4801708,2.3580326 26.3710679,2.33461637 26.2061434,2.33461637 L25.9073051,2.33461637 L25.907594,2.82224699 Z M11.6240287,24.8681994 L9.3713653,24.8864899 L7.87034813,24.8616955 L7.6420662,24.8564127 C7.50829681,24.8564127 7.41213503,24.9528218 7.41213503,25.0921465 C7.41213503,25.1563629 7.41213503,25.3591665 7.66072554,25.3591665 C8.56796654,25.3591665 8.60137277,25.4321473 8.60964306,25.7806103 L8.61837082,25.9998791 L8.6325158,26.9289003 L8.6325158,28.9281048 C8.6325158,29.2587488 8.62063401,29.7861277 8.59910957,30.2108959 C8.59309043,30.3337556 8.58692683,30.4493498 7.78592366,30.4493498 C7.5587011,30.4493498 7.42447426,30.4952877 7.42447426,30.7154632 C7.42447426,30.7813478 7.42447426,30.9510399 7.6422227,30.9510399 L7.69248252,30.9510399 C7.78818686,30.9463494 8.0420381,30.9345748 9.29568065,30.9345748 C10.631027,30.9345748 10.8988787,30.9484649 10.9897678,30.9510399 L11.0367171,30.9510399 C11.2120305,30.9510399 11.3644593,30.9345748 11.3644593,30.7154632 C11.3644593,30.469901 11.1619152,30.4493498 10.8231821,30.4493498 C10.0185795,30.4493498 10.0121028,30.3337556 10.0062402,30.2133137 C9.98713544,29.823144 9.97072725,29.2960672 9.97072725,28.9276575 L9.97072725,28.2061063 L10.6457739,28.2061063 C11.6785019,28.2061063 11.7930221,28.235567 11.9409365,29.0319244 C11.9833714,29.2054003 12.1215107,29.2273055 12.2366328,29.2273055 C12.4795051,29.2273055 12.5059893,29.0944845 12.5059893,29.0353939 L12.4855243,28.7361932 C12.4623145,28.5127175 12.4510105,28.2881538 12.4516605,28.0634571 L12.4516605,26.8382334 C12.4516605,26.654651 12.2307701,26.654651 12.1129394,26.654651 C11.9182202,26.654651 11.8729202,26.7784053 11.7492389,27.3577666 C11.6922015,27.5774827 11.2658899,27.7051658 10.5795634,27.7051658 L9.97072725,27.7051658 L9.97072725,25.9058878 C9.97072725,25.4156701 10.0571019,25.4117412 10.1647001,25.4103872 C10.5598446,25.3920968 11.516888,25.3590094 11.8046029,25.3590094 C12.0783294,25.3590094 12.3302304,25.4218717 12.4909415,25.5284114 C13.0030138,25.8454432 13.2645575,26.0615205 13.4233064,26.1919357 C13.5786002,26.3164515 13.6655768,26.3900489 13.7916778,26.3900489 C13.8666161,26.3900489 14.0837506,26.3900489 14.0837506,26.2014497 C14.0837506,26.1553788 14.063141,26.1132127 13.993319,25.9574107 C13.9107003,25.7722932 13.7701654,25.4691757 13.5921433,25.0026886 C13.5405231,24.8543092 13.3716862,24.8543092 13.0558378,24.8543092 L11.6240287,24.8681994 Z M24.8557492,31 C26.1163137,31 26.8246221,30.7104705 27.3535601,30.4292581 L27.4959008,30.3539925 L27.2653797,30.0954589 L27.2780079,30.1084424 C27.2221864,30.0313755 27.1786921,30.0159622 27.0938342,30.0159622 L26.9722476,30.0579711 C26.7826446,30.145918 26.2041932,30.414437 25.1544671,30.414437 C23.8606408,30.414437 22.4687145,29.5700383 22.4687145,27.7103036 C22.4687145,25.9412478 23.9796753,25.3160937 25.267314,25.3160937 C26.1954655,25.3160937 26.6888905,25.647185 26.7808389,26.333376 L26.7912159,26.4453436 L26.9066269,26.4453436 C27.0169337,26.4453436 27.3103668,26.4453436 27.3103668,26.2251802 L27.3103668,25.1944551 C27.3103668,24.9401284 27.0194858,24.9055179 26.8983446,24.8872394 L26.7772154,24.8698555 C26.4804718,24.8311831 26.1959229,24.7936954 25.4429284,24.7936954 C22.8953271,24.7936954 21.0474509,26.1266556 21.0474509,27.9623575 C21.0474509,29.4703048 22.3537609,31 24.8557492,31 Z M17.2529846,28.0533266 C18.3371763,28.5609039 18.9607593,29.0990179 18.9607593,29.531656 C18.9607593,30.2308427 18.2101724,30.4785204 17.5063784,30.4785204 C16.4176723,30.4785204 15.7749846,30.044081 15.418495,29.0689527 L15.387352,28.9865909 L15.2994725,28.9865909 C15.1082083,28.9865909 14.9557796,28.9956577 14.8709097,29.0990179 C14.795225,29.1990537 14.8165809,29.3300734 14.8475795,29.4576114 C14.8451718,29.4545892 15.0880442,30.4575219 15.0880442,30.4575219 C15.1529064,30.7012587 15.2406414,30.7408499 15.6296224,30.8176145 C15.8001085,30.8470752 16.6804078,31 17.4261794,31 C19.5062379,31 20.4346904,30.1540781 20.4346904,29.3145028 C20.4346904,28.7032631 19.8302362,28.1192112 18.5261774,27.4668691 L17.9337374,27.1808091 C17.0415563,26.7552792 16.5010495,26.5023187 16.5010495,26.0533604 C16.5010495,25.6186189 17.0606731,25.3160937 17.8589677,25.3160937 C18.9016273,25.3160937 19.1795671,25.8992268 19.3073174,26.4069613 L19.3297326,26.5023187 L19.4284585,26.5023187 C19.66034,26.5023187 19.806906,26.4831215 19.8925223,26.3895895 C19.9424932,26.3363983 19.9628017,26.2629581 19.9507635,26.1771268 L19.8695051,25.3109559 C19.8466323,25.0320042 19.6350596,24.9921108 19.341181,24.9322706 C18.991469,24.8700127 18.5734276,24.7938524 17.9418753,24.7938524 C16.1349293,24.7936954 15.0564437,25.3238065 15.0564437,26.2090052 C15.0564437,26.9533924 15.8860378,27.4024956 17.2529846,28.0533266 Z M7.46149198,17.9908148 C6.74175925,17.2624576 4.52685994,15.0504882 4.52460878,15.0541148 C4.07919237,14.6122649 3.56756541,14.755978 3.25411264,15.0621297 C2.93870967,15.3802134 2.89266324,15.9635036 3.25411264,16.3174066 C3.27232656,16.3331221 6.25525618,19.3113839 7.28619052,20.3437774 C7.57059492,20.6209037 7.98214765,20.784104 8.39341145,20.5435467 C8.81956661,20.2809029 8.87795228,19.8168577 8.8895331,19.8168577 C12.4235271,3.96192958 15.5817582,2.77963356 17.6317451,2.77963356 C19.3562289,2.77963356 21.3435806,4.05486917 21.3435806,6.60593275 C23.9152585,6.60593275 25.5270399,9.98946328 23.4573583,12.0722264 C25.1732589,12.9034966 25.9386046,13.9257716 25.9386046,15.2192857 C25.9386046,16.5141537 24.8557492,17.8360767 23.2751349,17.8326072 C21.7077386,17.8326072 20.9112618,16.8240772 19.6901347,16.819701 C19.1363737,16.819701 18.8004937,17.2677405 18.8004937,17.7095904 L18.8004937,20.9105904 L16.4948739,20.9105904 L16.4948739,17.7215342 C16.4883973,17.2218147 16.1210852,16.8287678 15.663486,16.8287678 C15.6561066,16.8287678 15.4662027,16.8343649 15.4690558,16.8408566 L12.3810921,17.2218147 C12.0086518,17.2781732 11.6646579,17.683164 11.6646579,18.1012834 C11.6646579,18.5914768 12.0658336,18.9985832 12.6129736,18.9917771 C12.6826511,18.9917771 12.7762487,18.9917771 12.7670636,18.9837743 C12.7615018,18.9837743 14.7217795,18.7344403 14.7217795,18.7344403 L14.7217795,21.8938665 C14.7217795,22.2935745 15.1745753,22.6857027 15.5814693,22.6857027 L19.6836701,22.6857027 C20.160687,22.6857027 20.5752493,22.2733134 20.5752493,21.7893095 L20.5752493,18.9039874 C21.4335788,19.428187 22.6276319,19.6311237 23.2400794,19.6311237 C25.5413413,19.6311237 27.736221,17.8203611 27.729799,15.1638217 C27.7207278,12.7558668 25.879918,11.5531647 25.879918,11.5531647 C26.9603537,8.67267807 25.2128407,5.89176793 22.9498003,5.11839159 C22.1339058,2.14723817 19.5990892,1 17.6400154,1 C11.5871675,1 9.45127543,10.416202 7.46149198,17.9908148 Z" fill="#ffffff"></path>
    </g>
</svg>